<svg fill="none" height="25" viewBox="0 0 165 25" width="165" xmlns="http://www.w3.org/2000/svg">
<g clip-path="url(#clip0_4734_2825)">
<path d="M26.375 1.35938H34.5252C40.5007 1.35938 45.3105 6.13978 45.3105 12.0859C45.3105 18.0026 40.5007 22.8124 34.5252 22.8124H26.375V1.35938ZM34.4468 19.4035C38.5121 19.4035 41.7742 16.112 41.7742 12.0761C41.7742 8.0108 38.5415 4.74876 34.4468 4.74876H29.9309V19.4035H34.4468Z" fill="currentColor"></path>
<path d="M50.2647 0.898438C51.4696 0.898438 52.4982 1.89762 52.4982 3.10252C52.4982 4.3368 51.4696 5.33599 50.2647 5.33599C49.0598 5.33599 48.0312 4.3368 48.0312 3.10252C48.0313 1.89762 49.0598 0.898438 50.2647 0.898438ZM48.5504 8.39231H51.9202V22.8119H48.5406V8.39231H48.5504Z" fill="currentColor"></path>
<path d="M54.9062 15.6014C54.9062 11.4773 58.2271 8.07812 62.2336 8.07812C63.8597 8.07812 65.2409 8.64629 66.1814 9.73364V8.39159H69.5022V22.8112H66.1814V21.4398C65.2409 22.5565 63.8891 23.1247 62.2336 23.1247C58.2271 23.1247 54.9062 19.7157 54.9062 15.6014ZM62.4883 19.892C64.0067 19.892 65.3781 19.03 66.1226 17.7173V13.4855C65.3781 12.1434 64.0067 11.3108 62.4883 11.3108C60.1667 11.3108 58.2858 13.2308 58.2858 15.6014C58.2858 17.9426 60.1667 19.892 62.4883 19.892Z" fill="currentColor"></path>
<path d="M73.3906 0.5H76.7702V22.8151H73.3906V0.5Z" fill="currentColor"></path>
<path d="M79.7344 15.6014C79.7344 11.3402 82.9083 8.07812 87.0323 8.07812C91.0976 8.07812 94.2421 11.3989 94.2421 15.4545C94.2421 15.8561 94.1834 16.3655 94.0952 16.8259H83.2217C83.6527 18.7753 85.1417 19.9998 87.2576 19.9998C88.8348 19.9998 90.118 19.2847 90.9213 18.0308L93.4095 20.1173C92.0674 22.0079 89.9221 23.0953 87.3752 23.0953C82.9964 23.0953 79.7344 19.892 79.7344 15.6014ZM90.7744 14.0242C90.2356 12.31 88.825 11.2226 87.0029 11.2226C85.2005 11.2226 83.8291 12.31 83.3099 14.0242H90.7744Z" fill="currentColor"></path>
<path d="M96.2656 15.572C96.2656 11.4479 99.6746 8.07812 103.789 8.07812C106.875 8.07812 109.539 9.96874 110.656 12.7116L107.648 14.1418C107.08 12.4569 105.562 11.3108 103.789 11.3108C101.497 11.3108 99.6452 13.2602 99.6452 15.572C99.6452 17.9426 101.536 19.892 103.789 19.892C105.591 19.892 107.08 18.7165 107.648 17.0022L110.656 18.4324C109.568 21.2047 106.884 23.1247 103.789 23.1247C99.6746 23.1247 96.2656 19.7157 96.2656 15.572Z" fill="currentColor"></path>
<path d="M115.378 17.8652V11.5958H111.891V8.39254H115.378V3.98438H118.758V8.39254H123.989V11.5958H118.758V17.4929C118.758 19.0407 119.59 19.8929 121.05 19.8929C121.912 19.8929 122.676 19.6089 123.42 18.9525L124.88 21.617C123.793 22.5868 122.304 23.1354 120.736 23.1354C117.553 23.1256 115.378 20.9803 115.378 17.8652Z" fill="currentColor"></path>
<path d="M128.874 0.898438C130.079 0.898438 131.108 1.89762 131.108 3.10252C131.108 4.3368 130.079 5.33599 128.874 5.33599C127.669 5.33599 126.641 4.3368 126.641 3.10252C126.65 1.89762 127.679 0.898438 128.874 0.898438ZM127.16 8.39231H130.539V22.8119H127.16V8.39231Z" fill="currentColor"></path>
<path d="M133.523 15.572C133.523 11.4479 136.923 8.07812 141.047 8.07812C144.132 8.07812 146.797 9.96874 147.914 12.7116L144.906 14.1418C144.338 12.4569 142.82 11.3108 141.047 11.3108C138.754 11.3108 136.903 13.2602 136.903 15.572C136.903 17.9426 138.794 19.892 141.047 19.892C142.849 19.892 144.338 18.7165 144.906 17.0022L147.914 18.4324C146.826 21.2047 144.142 23.1247 141.047 23.1247C136.923 23.1247 133.523 19.7157 133.523 15.572Z" fill="currentColor"></path>
<path d="M149.688 15.6014C149.688 11.4773 153.008 8.07812 157.015 8.07812C158.641 8.07812 160.022 8.64629 160.963 9.73364V8.39159H164.283V22.8112H160.953V21.4398C160.012 22.5565 158.661 23.1247 157.005 23.1247C152.999 23.1247 149.688 19.7157 149.688 15.6014ZM157.26 19.892C158.778 19.892 160.15 19.03 160.894 17.7173V13.4855C160.15 12.1434 158.778 11.3108 157.26 11.3108C154.938 11.3108 153.057 13.2308 153.057 15.6014C153.057 17.9426 154.948 19.892 157.26 19.892Z" fill="currentColor"></path>
<path d="M6.46598 6.88166C6.64231 7.42044 7.98435 7.44983 9.46353 6.96003C10.9427 6.47024 11.9909 5.63758 11.8146 5.09881C11.7558 4.91268 11.5501 4.78534 11.2464 4.72656C10.639 4.72656 10.0219 4.79513 9.40476 4.95187C8.71904 5.1282 8.07251 5.39268 7.46516 5.73554C7.21047 5.88248 6.95577 6.04901 6.73047 6.22534C6.54435 6.37228 6.38761 6.64656 6.46598 6.88166Z" fill="currentColor"></path>
<path d="M11.4027 13.0782C8.04272 14.1067 4.94721 14.0872 3.70312 13.1467C3.74231 13.4896 3.79129 13.8423 3.87945 14.1851C3.997 14.6455 4.21251 15.3214 4.40843 15.7329C4.42802 15.7721 4.42802 15.7721 4.45741 15.7819C6.69088 16.5263 9.13006 16.3598 12.2158 15.4292C15.2623 14.5084 17.819 12.7255 18.8084 11.2267C18.7692 10.9721 18.7203 10.7174 18.6615 10.4725C18.495 9.81614 18.2403 9.20879 17.9268 8.64062C17.5546 10.1492 14.9097 12.0006 11.4027 13.0782Z" fill="currentColor"></path>
<path d="M18.5508 14.5C17.3361 15.7245 15.2692 16.9588 12.7615 17.7131C10.4202 18.4184 8.18676 18.5555 6.53125 18.2812C7.16798 18.7808 7.87329 19.1922 8.63737 19.4763C9.64635 19.7702 11.341 19.6722 13.1827 19.1433C15.0243 18.6143 16.5329 17.8012 17.2382 17.0176C17.8357 16.2731 18.2766 15.411 18.5508 14.5Z" fill="currentColor"></path>
<path d="M10.6853 10.5521C13.624 9.65084 15.9065 8.15206 16.5138 6.83941C15.6812 6.04594 14.6722 5.43859 13.5751 5.08594C13.6338 5.15451 13.6828 5.23288 13.7122 5.31124C14.0061 6.21247 12.2428 7.60349 9.77425 8.42635C7.35466 9.22961 5.15057 9.19043 4.77833 8.34798C4.32772 9.08267 4.00445 9.88594 3.82812 10.7382C5.06241 11.4729 7.76608 11.4435 10.6853 10.5521Z" fill="currentColor"></path>
<path d="M11.2461 21.2483C6.20122 21.2483 2.11633 17.1634 2.11633 12.1185C2.11633 8.79768 3.89918 5.89809 6.54408 4.30136L5.82898 2.85156C2.64531 4.71279 0.5 8.16095 0.5 12.1185C0.5 18.0548 5.3098 22.8646 11.2461 22.8646C12.5 22.8646 13.6951 22.6393 14.8118 22.2475L14.2633 20.7291C13.3131 21.0622 12.3041 21.2483 11.2461 21.2483Z" fill="currentColor"></path>
<path d="M21.9975 12.1153C21.9975 6.17897 17.1779 1.35938 11.2416 1.35938C9.97788 1.35938 8.77298 1.58468 7.65625 1.98631L8.20482 3.50468C9.15503 3.17162 10.1738 2.9757 11.2416 2.9757C16.2865 2.9757 20.3713 7.0606 20.3713 12.1055C20.3713 15.4361 18.5787 18.3455 15.9142 19.9422L16.6293 21.392L17.1289 22.3618L18.2358 24.4973C18.2358 24.4092 18.3142 21.0394 18.3338 20.1577C20.5869 18.1986 21.9975 15.3186 21.9975 12.1153Z" fill="currentColor"></path>
</g>
<defs>
<clipPath id="clip0_4734_2825">
<rect fill="white" height="24" transform="translate(0.5 0.5)" width="163.778"></rect>
</clipPath>
</defs>
</svg>