<svg xmlns="http://www.w3.org/2000/svg" width="293" height="244" viewBox="0 0 293 244" version="1.1"><path d="M 25.455 41.455 C 22.617 44.292, 22.363 46.645, 24.557 49.777 L 26.113 52 106.857 52 C 194.416 52, 190 52.303, 190 46.300 C 190 38.488, 195.825 39, 106.955 39 L 27.909 39 25.455 41.455 M 83.203 105.250 C 83.598 166.739, 84.572 168.656, 115 167.796 L 125.500 167.500 125.789 161 L 126.077 154.500 113.955 154.500 L 101.833 154.500 98.917 151.234 L 96 147.968 96 103.484 L 96 59 89.453 59 L 82.907 59 83.203 105.250 M 233.655 116.829 C 232.279 118.349, 232 121.046, 232 132.829 L 232 147 238 147 L 244 147 244 132.655 C 244 120.028, 243.781 118.112, 242.171 116.655 C 239.756 114.469, 235.716 114.552, 233.655 116.829 M 133 173.425 C 133 234.880, 132.800 233, 139.345 233 C 145.152 233, 145.065 233.755, 145.484 179.866 L 145.868 130.500 155.457 130.214 C 182.886 129.394, 188.266 157.869, 161.035 159.735 L 153 160.286 153 166.143 L 153 172 161.250 171.978 C 181.374 171.924, 193.685 156.528, 189.050 137.210 C 185.475 122.304, 178.405 118.597, 152.750 118.175 L 133 117.850 133 173.425 M 235.856 153.761 L 196.211 154.023 195.528 156.761 C 195.152 158.268, 193.754 160.932, 192.422 162.683 C 191.090 164.434, 190 166.103, 190 166.391 C 190 166.680, 209.688 166.905, 233.750 166.892 C 283.019 166.866, 282 167.009, 282 160.099 C 282 153.110, 284.408 153.441, 235.856 153.761 M 232 185.797 C 232 199.918, 232.793 202, 238.174 202 C 243.227 202, 244.210 199.347, 244.176 185.807 L 244.145 173.500 238.072 173.202 L 232 172.905 232 185.797" stroke="none" fill="#e1e1e1" fill-rule="evenodd"/><path d="M 0 122.003 L 0 244.007 146.750 243.753 L 293.500 243.500 293.754 121.750 L 294.008 0 147.004 0 L 0 0 0 122.003 M 0.484 122.500 C 0.484 189.600, 0.604 216.903, 0.750 183.173 C 0.896 149.443, 0.896 94.543, 0.750 61.173 C 0.604 27.803, 0.484 55.400, 0.484 122.500 M 25.455 41.455 C 22.617 44.292, 22.363 46.645, 24.557 49.777 L 26.113 52 106.857 52 C 194.416 52, 190 52.303, 190 46.300 C 190 38.488, 195.825 39, 106.955 39 L 27.909 39 25.455 41.455 M 83.203 105.250 C 83.598 166.739, 84.572 168.656, 115 167.796 L 125.500 167.500 125.789 161 L 126.077 154.500 113.955 154.500 L 101.833 154.500 98.917 151.234 L 96 147.968 96 103.484 L 96 59 89.453 59 L 82.907 59 83.203 105.250 M 233.655 116.829 C 232.279 118.349, 232 121.046, 232 132.829 L 232 147 238 147 L 244 147 244 132.655 C 244 120.028, 243.781 118.112, 242.171 116.655 C 239.756 114.469, 235.716 114.552, 233.655 116.829 M 133 173.425 C 133 234.880, 132.800 233, 139.345 233 C 145.152 233, 145.065 233.755, 145.484 179.866 L 145.868 130.500 155.457 130.214 C 182.886 129.394, 188.266 157.869, 161.035 159.735 L 153 160.286 153 166.143 L 153 172 161.250 171.978 C 181.374 171.924, 193.685 156.528, 189.050 137.210 C 185.475 122.304, 178.405 118.597, 152.750 118.175 L 133 117.850 133 173.425 M 235.856 153.761 L 196.211 154.023 195.528 156.761 C 195.152 158.268, 193.754 160.932, 192.422 162.683 C 191.090 164.434, 190 166.103, 190 166.391 C 190 166.680, 209.688 166.905, 233.750 166.892 C 283.019 166.866, 282 167.009, 282 160.099 C 282 153.110, 284.408 153.441, 235.856 153.761 M 232 185.797 C 232 199.918, 232.793 202, 238.174 202 C 243.227 202, 244.210 199.347, 244.176 185.807 L 244.145 173.500 238.072 173.202 L 232 172.905 232 185.797" stroke="none" fill="#1c1c1c" fill-rule="evenodd"/></svg>