<svg xmlns="http://www.w3.org/2000/svg" width="460" height="529" viewBox="0 0 460 529" version="1.1"><path d="M 42.500 58.006 C 20.651 58.560, 20.299 58.632, 17.750 63.097 C 15.018 67.881, 15.504 71.438, 19.425 75.359 L 22.851 78.784 50.015 78.889 C 64.956 78.946, 77.552 79.223, 78.006 79.504 C 80.035 80.758, 275.967 79.746, 283.798 78.441 C 287.431 77.836, 290.990 73.267, 290.996 69.200 C 291 66.941, 288.430 61, 287.449 61 C 287.174 61, 287.635 62.328, 288.474 63.950 C 291.347 69.506, 289.277 76.195, 284.285 77.485 C 280.512 78.461, 91.728 78.819, 75.957 77.881 C 69.058 77.471, 55.005 76.992, 44.727 76.818 C 31.219 76.588, 25.910 76.163, 25.565 75.282 C 24.851 73.461, 26.640 72.769, 32.065 72.769 C 37.303 72.769, 38.460 71.998, 39.512 67.807 C 40.124 65.370, 39.881 65.069, 36.843 64.502 C 30.476 63.314, 23.042 63.443, 22.541 64.750 C 21.906 66.409, 19 66.360, 19 64.691 C 19 63.971, 19.638 62.509, 20.419 61.441 C 22.152 59.069, 102.531 57.636, 195.500 58.320 C 238.726 58.639, 244.312 58.548, 223.500 57.867 C 196.977 57, 78.675 57.090, 42.500 58.006 M 115 178.203 C 115 234.296, 115.112 238.089, 116.933 243.790 C 127.397 276.547, 186.762 281.373, 184.103 249.250 C 184.025 248.303, 179.815 247.995, 166.750 247.978 C 147.520 247.954, 144.220 247.146, 138.500 241.061 L 135.500 237.870 134.975 184.685 L 134.449 131.500 134.148 171.500 C 133.808 216.651, 133.540 222.900, 131.880 224.423 C 131.007 225.224, 130.864 225.051, 131.321 223.750 C 131.660 222.787, 131.529 222, 131.031 222 C 130.532 222, 130.110 221.213, 130.092 220.250 C 130.033 217.019, 128.758 211.511, 127.787 210.292 C 126.893 209.170, 127.392 201.747, 128.567 198.686 C 128.850 197.948, 128.541 196.030, 127.880 194.422 C 127.220 192.815, 126.757 190.998, 126.853 190.383 C 126.948 189.769, 126.345 188.702, 125.513 188.011 C 124.288 186.994, 123.992 187.016, 123.956 188.128 C 123.724 195.261, 122.970 199.012, 121.397 200.850 C 120.373 202.046, 119.509 204.674, 119.457 206.753 C 119.110 220.581, 118.585 229.846, 118.025 232 C 116.544 237.693, 116.058 223.246, 116.018 172.398 C 115.995 143.383, 115.757 119.423, 115.488 119.155 C 115.220 118.886, 115 145.458, 115 178.203 M 196.276 187.724 C 194.585 192.130, 196.939 369.043, 198.722 371.512 C 202.440 376.663, 210.949 376.779, 214.262 371.724 C 215.984 369.095, 217.418 299.998, 215.750 299.999 C 215.338 300, 214.955 312.712, 214.900 328.250 C 214.845 343.788, 214.440 357.625, 214 359 C 213.218 361.443, 213.197 361.431, 213.100 358.473 C 213.045 356.807, 212.247 354.370, 211.327 353.057 C 210.407 351.743, 210.132 350.963, 210.715 351.324 C 213.096 352.795, 213.411 322.405, 211.045 319.554 C 210.535 318.940, 209.890 317.175, 209.610 315.632 C 208.421 309.078, 203.012 308.453, 202.985 314.867 C 202.948 323.677, 199.805 322.721, 199.270 313.738 C 198.368 298.580, 198.195 289.522, 197.857 240 L 197.500 187.500 210.500 187.860 C 217.650 188.058, 223.275 188.005, 223 187.742 C 221.473 186.282, 196.836 186.265, 196.276 187.724 M 136 242.839 C 136 244.321, 139.895 247.833, 142.426 248.632 C 143.567 248.992, 145.088 250.122, 145.807 251.143 C 146.525 252.165, 148.040 253, 149.173 253 C 150.704 253, 151.106 253.488, 150.737 254.899 C 150.340 256.415, 150.720 256.745, 152.620 256.536 C 153.929 256.393, 155 256.633, 155 257.070 C 155 258.583, 158.883 259.090, 160.887 257.839 C 162.383 256.904, 162.624 256.252, 161.827 255.291 C 161.004 254.300, 161.287 254, 163.044 254 C 164.303 254, 165.041 254.293, 164.683 254.650 C 164.325 255.008, 165.230 256.411, 166.694 257.767 C 169.223 260.111, 169.422 260.144, 170.678 258.426 C 171.790 256.905, 172 256.869, 172 258.202 C 172 259.919, 174.618 261.354, 176.090 260.444 C 176.591 260.135, 177 260.373, 177 260.972 C 177 262.464, 173.952 263.524, 173.149 262.311 C 172.183 260.853, 166 262.770, 166 264.529 C 166 265.338, 166.338 265.947, 166.750 265.882 C 167.162 265.816, 167.725 265.843, 168 265.942 C 168.275 266.040, 171.537 266.316, 175.250 266.556 L 182 266.992 182.041 263.746 C 182.064 261.961, 182.331 257.913, 182.636 254.750 L 183.189 249 165.045 249 C 147.364 249, 142.577 248.257, 140 245.110 C 138.514 243.297, 136 241.869, 136 242.839" stroke="none" fill="#aeaeaf" fill-rule="evenodd"/><path d="M 67 60.046 C 53.525 60.364, 42.275 60.771, 42 60.949 C 41.049 61.566, 54.540 62.753, 64.500 62.927 C 71.364 63.048, 75.206 63.564, 76.750 64.575 C 78.470 65.699, 79.004 65.746, 79.015 64.773 C 79.026 63.894, 79.330 63.964, 80 65 C 80.667 66.032, 80.974 66.104, 80.985 65.230 C 80.996 64.329, 82.163 64.553, 85 66 C 87.200 67.122, 89 68.283, 89 68.579 C 89 68.876, 88.550 68.840, 88 68.500 C 87.450 68.160, 87 68.864, 87 70.063 C 87 71.775, 86.711 72.005, 85.658 71.131 C 84.920 70.519, 84.007 70.326, 83.629 70.704 C 82.896 71.437, 82.875 71.443, 76 72.720 C 71.002 73.648, 70.405 75.194, 74.705 76.073 C 84.372 78.051, 283.944 78.122, 286.320 76.150 C 290.038 73.063, 289.110 62.200, 284.939 59.967 C 282.928 58.891, 113.302 58.953, 67 60.046 M 116.114 105.259 C 116.256 122.983, 117.562 147.924, 117.907 139.500 C 118.042 136.200, 118.350 132.600, 118.592 131.500 C 118.833 130.400, 119.117 128.744, 119.223 127.819 C 119.329 126.895, 119.775 126.361, 120.215 126.633 C 120.655 126.905, 121.739 126.404, 122.624 125.519 C 125.010 123.133, 126.315 124.082, 128.147 129.532 C 129.052 132.226, 130.293 134.598, 130.903 134.801 C 131.513 135.004, 131.719 135.695, 131.360 136.335 C 130.980 137.012, 131.291 136.956, 132.103 136.201 C 133.216 135.166, 133.500 130.491, 133.500 113.201 L 133.500 91.500 124.750 91.259 L 116 91.018 116.114 105.259 M 363.712 185.420 C 360.743 187.672, 360.260 191.674, 360.383 213.031 L 360.500 233.500 369 233.500 L 377.500 233.500 377.401 211.389 C 377.282 184.596, 373.716 177.832, 363.712 185.420 M 197.418 189.132 C 197.203 189.480, 197.921 190.901, 199.014 192.290 C 200.106 193.679, 201 195.359, 201 196.023 C 201 196.856, 201.765 196.729, 203.465 195.615 C 208.797 192.121, 216.153 195.282, 215.276 200.689 C 214.523 205.325, 217.063 205.999, 235.315 206.006 C 261.237 206.015, 271 213.200, 271 232.266 C 271 249.879, 258.239 258.888, 235 257.682 L 231.500 257.500 231.382 266.003 L 231.263 274.506 242.878 274.137 C 250.623 273.891, 255.151 273.307, 256.469 272.384 C 257.556 271.623, 259.807 270.995, 261.473 270.989 C 263.494 270.982, 266.494 269.484, 270.500 266.481 C 297.165 246.490, 294.241 206.597, 265.056 192.187 L 257.590 188.500 227.699 188.500 C 211.260 188.500, 197.633 188.785, 197.418 189.132 M 212.607 208.582 C 212.273 209.452, 212 211.477, 212 213.082 C 212 215.009, 211.491 216, 210.500 216 C 208.772 216, 208.487 219.087, 210.069 220.669 C 211.527 222.127, 211.932 225.360, 210.753 226.124 C 210.181 226.495, 210.477 227.799, 211.481 229.331 C 212.884 231.473, 213.142 234.188, 212.988 245.207 C 212.610 272.363, 213.199 299.714, 214.054 294.618 C 214.504 291.932, 214.841 275.057, 214.804 257.118 C 214.766 239.178, 214.848 224.050, 214.986 223.500 C 216.453 217.652, 214.302 204.163, 212.607 208.582 M 300.112 252.250 C 298.868 255.137, 296.555 259.134, 294.973 261.131 C 291.037 266.100, 285.423 265.760, 363.774 265.295 C 431.132 264.895, 448.069 264.143, 426.351 262.514 C 420.961 262.110, 415.527 261.390, 414.275 260.915 C 412.796 260.352, 412 260.420, 412 261.108 C 412 262.749, 409.704 261.591, 409.444 259.819 C 409.317 258.955, 408.915 257.307, 408.550 256.157 C 408.020 254.487, 408.400 253.938, 410.443 253.425 C 411.849 253.072, 413 252.355, 413 251.833 C 413 251.310, 413.412 251.136, 413.915 251.447 C 414.418 251.758, 415.018 251.447, 415.248 250.756 C 415.546 249.863, 418.470 249.500, 425.370 249.500 C 436.375 249.500, 436.960 249.865, 436.985 256.750 C 436.993 259.087, 437.398 261, 437.885 261 C 438.371 261, 438.769 258.668, 438.769 255.817 C 438.769 246.397, 444.168 247.071, 368.437 247.033 L 302.375 247 300.112 252.250 M 235.578 263.216 C 234.687 263.715, 234.223 264.553, 234.548 265.078 C 234.873 265.603, 235.670 265.705, 236.319 265.305 C 236.969 264.905, 236.677 265.836, 235.670 267.375 C 232.981 271.488, 250.576 274.281, 254.493 270.364 C 255.243 269.614, 256.474 269, 257.229 269 C 257.983 269, 259.140 268.460, 259.800 267.800 C 261.201 266.399, 261.434 263.614, 260.081 264.450 C 259.575 264.763, 258.562 264.438, 257.831 263.729 C 256.262 262.209, 238.125 261.791, 235.578 263.216 M 367.622 279.794 L 359.745 280.089 360.398 299.794 L 361.052 319.500 363.776 321.745 C 365.274 322.980, 367.625 323.990, 369 323.990 C 370.375 323.990, 372.698 322.980, 374.163 321.745 L 376.825 319.500 377.302 299.815 C 377.648 285.573, 377.464 280.042, 376.640 279.815 C 376.013 279.642, 371.955 279.632, 367.622 279.794 M -0 395.270 C -0 396.282, 45.416 396.529, 229.500 396.516 C 432.810 396.502, 459.008 396.671, 459.070 398 C 459.144 399.563, 460.792 396.460, 460.930 394.500 C 460.976 393.835, 383.704 393.585, 230.500 393.754 C 45.754 393.958, -0 394.259, -0 395.270 M 25.415 426.789 C 19.234 427.721, 19 427.907, 19 431.864 C 19 436.119, 21.678 439.445, 24.295 438.440 C 28.708 436.747, 29.494 439.057, 29.524 453.807 C 29.556 469.608, 30.074 471.009, 35.872 470.985 C 42.274 470.958, 42.470 470.524, 42.771 455.788 C 43.120 438.698, 43.166 438.513, 47.060 438.354 C 54.644 438.044, 56.011 427.230, 48.500 426.958 C 39.896 426.647, 26.987 426.552, 25.415 426.789 M 100 426.800 C 95.384 427.430, 95 429.089, 95 448.391 C 95 458.296, 94.624 465.973, 94.165 465.450 C 93.299 464.464, 89.876 455.644, 89.829 454.278 C 89.815 453.850, 89.306 452.600, 88.699 451.500 C 88.093 450.400, 87.507 449.050, 87.398 448.500 C 87.171 447.352, 84.177 438.240, 83.291 436 C 82.965 435.175, 82.577 433.914, 82.430 433.198 C 79.806 420.458, 67.194 424.666, 61.554 440.163 C 59.484 445.849, 57.545 451.175, 57.245 452 C 56.944 452.825, 56.575 453.950, 56.426 454.500 C 56.276 455.050, 55.123 458.263, 53.864 461.641 C 51.054 469.174, 51.952 471, 58.467 471 C 62.722 471, 64.992 469.488, 66.305 465.780 C 67.853 461.409, 77.467 462.429, 80.514 467.288 C 83.055 471.339, 91.016 472.549, 93.106 469.201 C 94.264 467.347, 94.346 467.346, 96.148 469.148 C 101.388 474.388, 107.910 470.918, 108.222 462.722 C 108.479 455.993, 110.472 456.213, 113.928 463.351 C 117.504 470.739, 118.316 471.112, 130.113 470.786 L 140.487 470.500 142.936 466.711 C 146.376 461.390, 154.281 461.430, 156.835 466.781 C 158.521 470.315, 160.832 471.334, 166.011 470.824 C 170.134 470.418, 171.839 468.020, 170.285 464.815 C 169.667 463.542, 167.029 456.200, 164.421 448.500 C 156.842 426.118, 157.139 426.521, 148.502 426.852 C 143.503 427.043, 138.865 433.876, 137.542 443 C 137.502 443.275, 137.199 443.950, 136.869 444.500 C 136.539 445.050, 135.046 449.212, 133.552 453.750 C 130.345 463.490, 129.227 463.875, 125.395 456.557 L 122.545 451.113 124.916 448.589 C 135.932 436.863, 121.128 423.917, 100 426.800 M 177.121 427.072 C 172.375 428.095, 170.032 445.989, 171.957 466.500 C 172.693 474.330, 184.689 472.331, 185.373 464.265 C 185.786 459.399, 186.662 457.842, 188.839 458.106 C 193.268 458.643, 201.148 454.002, 203.386 449.537 C 210.803 434.743, 196.860 422.818, 177.121 427.072 M 231 427.266 C 207.522 437.922, 213.587 471.538, 238.978 471.484 C 252.271 471.456, 261.953 461.990, 253.783 457.009 C 249.542 454.423, 248.548 454.480, 244.538 457.539 C 239.414 461.447, 231.542 458.525, 230.962 452.500 C 229.885 441.305, 236.941 434.714, 243.812 440.495 C 250.242 445.905, 259.003 441.775, 255.494 434.988 C 251.838 427.918, 238.694 423.774, 231 427.266 M 303.749 427.250 C 295.942 429.853, 298.329 471.014, 306.285 470.985 C 312.351 470.963, 313.215 470.074, 313.308 463.765 C 313.373 459.311, 313.679 458.371, 314.944 458.728 C 316.488 459.163, 321 465.336, 321 467.013 C 321 470.030, 332.860 472.654, 334.500 470 C 334.883 469.380, 333.044 469, 329.660 469 L 324.203 469 321.002 462.750 C 314.893 450.821, 310.497 450.260, 311.218 461.500 L 311.700 469 306.850 469 L 302 469 302 448.914 L 302 428.828 313.584 429.164 L 325.169 429.500 328.084 432.766 C 333.072 438.352, 331.341 448.487, 325.060 450.481 C 323.262 451.051, 323.279 451.188, 325.408 453.317 C 326.639 454.548, 329.138 458.355, 330.962 461.777 C 332.786 465.200, 334.626 468, 335.051 468 C 336.180 468, 335.619 465.451, 334.084 463.601 C 333.353 462.720, 333.148 461.993, 333.628 461.985 C 334.107 461.976, 333.994 461.639, 333.375 461.235 C 329.251 458.540, 327.387 451.281, 330.084 448.411 C 336.797 441.265, 332.024 429.194, 321.803 427.466 C 315.389 426.382, 306.667 426.278, 303.749 427.250 M 350.667 426.642 C 350.208 427.114, 349.421 427.556, 348.917 427.625 C 348.413 427.694, 347.588 427.806, 347.084 427.875 C 345.626 428.074, 338.378 435.269, 337.047 437.838 C 332.653 446.319, 334.542 459.542, 341.083 466.083 C 350.672 475.672, 374 472.387, 374 461.448 C 374 457.148, 375.246 456.427, 376.808 459.822 C 385.181 478.016, 412.755 474.771, 417.785 455 C 424.676 427.910, 389.718 414.115, 377.321 439.033 C 375.573 442.547, 374.385 445.814, 374.681 446.293 C 374.978 446.773, 373.754 446.407, 371.963 445.481 C 364.018 441.372, 353 443.970, 353 449.952 C 353 454.033, 356.544 458.018, 358.887 456.570 C 359.423 456.239, 360.145 456.426, 360.491 456.986 C 361.928 459.311, 355.879 460.121, 352.629 458.038 C 350.908 456.936, 349.893 456.026, 350.372 456.017 C 350.852 456.008, 350.783 455.438, 350.220 454.750 C 349.177 453.479, 348.690 450.347, 348.889 446.205 C 349.160 440.591, 359.537 436.327, 362.942 440.430 C 364.326 442.097, 367.234 441.732, 370.711 439.454 C 374.270 437.121, 372.878 436.614, 368.565 438.671 C 366.079 439.856, 364.657 440.081, 364.191 439.363 C 359.922 432.791, 348.633 436.968, 347.070 445.697 C 345.279 455.696, 351.223 463.119, 359.740 461.521 C 365.280 460.482, 364.643 454, 359 454 L 355 454 355 450 L 355 446 363.500 446 L 372 446 372 455.877 L 372 465.754 367.065 467.877 C 351.493 474.576, 336.628 465.541, 336.729 449.439 C 336.847 430.595, 358.388 420.589, 370.613 433.699 C 372.695 435.932, 373.151 436.116, 372.862 434.608 C 371.854 429.342, 354.198 423.006, 350.667 426.642 M 271.249 428.250 C 270.701 428.938, 269.229 432.425, 267.978 436 C 266.726 439.575, 264.149 446.550, 262.250 451.500 C 255.399 469.361, 255.514 471, 263.610 471 C 267.615 471, 268.183 470.670, 270.500 467 C 274.194 461.148, 285 461.548, 285 467.536 C 285 470.651, 295.154 472.446, 297.800 469.800 C 299.159 468.441, 299.439 464, 298.167 464 C 297.708 464, 297.333 463.418, 297.333 462.707 C 297.333 461.996, 296.186 458.284, 294.784 454.457 C 293.383 450.631, 290.772 443.450, 288.982 438.500 C 284.802 426.935, 284.864 427, 278 427 C 274.594 427, 271.838 427.510, 271.249 428.250 M 231.500 429.202 C 214.402 435.151, 214.402 464.160, 231.500 468.884 C 241.410 471.622, 256.093 466.364, 255.990 460.115 C 255.956 458.091, 247.974 456.180, 247.017 457.967 C 243.535 464.475, 229.267 460.695, 228.923 453.173 C 228.881 452.253, 228.695 450.704, 228.509 449.731 C 226.599 439.728, 239.308 432.109, 245.679 439.439 C 247.836 441.921, 252.283 441.712, 255.327 438.986 C 260.603 434.262, 240.584 426.041, 231.500 429.202 M 389.007 429.593 C 381.308 432.932, 376.818 440.039, 376.734 449.023 C 376.485 475.459, 413.537 477.596, 416.648 451.324 C 418.558 435.196, 403.459 423.326, 389.007 429.593 M 21 433.008 L 21 437.017 26.404 436.492 L 31.809 435.967 31.347 452.484 L 30.885 469 35.943 469 L 41 469 41 452.428 L 41 435.857 46.250 436.178 L 51.500 436.500 51.650 432.750 L 51.800 429 36.400 429 L 21 429 21 433.008 M 62.609 442.750 C 59.924 450.313, 56.675 459.336, 55.389 462.801 L 53.051 469.103 58.275 468.801 C 63.402 468.506, 63.517 468.429, 64.426 464.750 L 65.353 461 72.636 461 L 79.920 461 81.118 465 C 82.316 468.997, 82.321 469, 87.488 469 L 92.660 469 85.681 449 L 78.702 429 73.096 429 L 67.490 429 62.609 442.750 M 97 448.914 L 97 469 102.079 469 L 107.159 469 106.591 461.500 C 105.745 450.319, 109.927 450.888, 116.019 462.783 L 119.237 469.065 129.868 468.783 L 140.500 468.500 141.426 464.750 L 142.353 461 149.636 461 L 156.920 461 158.118 465 C 159.316 468.997, 159.321 469, 164.488 469 L 169.660 469 162.681 449 L 155.702 429 150.086 429 L 144.471 429 137.538 448.500 C 129.624 470.762, 130.323 469.960, 125.962 461.777 C 124.138 458.355, 121.639 454.548, 120.408 453.317 C 118.279 451.188, 118.262 451.051, 120.060 450.481 C 126.341 448.487, 128.072 438.352, 123.084 432.766 L 120.169 429.500 108.584 429.164 L 97 428.828 97 448.914 M 174 449 L 174 469 178.926 469 L 183.851 469 183.337 462.500 L 182.822 456 187.443 456 C 199.227 456, 206.570 447.041, 202.834 437.223 C 200.379 430.773, 196.394 429, 184.352 429 L 174 429 174 449 M 267.609 442.750 C 264.924 450.313, 261.675 459.336, 260.389 462.801 L 258.051 469.103 263.275 468.801 C 268.412 468.505, 268.516 468.436, 269.436 464.711 L 270.372 460.923 277.901 461.211 L 285.431 461.500 286.315 465.250 C 287.197 468.993, 287.209 469, 292.430 469 L 297.660 469 290.681 449 L 283.702 429 278.096 429 L 272.490 429 267.609 442.750 M 183.434 442.607 L 183.369 449.214 187.305 448.686 C 196.504 447.452, 196.003 436, 186.750 436 L 183.500 436 183.434 442.607 M 391.888 437.450 C 386.612 440.418, 384.776 451.521, 388.687 456.807 C 396.887 467.889, 410.638 457.555, 406.078 443.738 C 403.946 437.277, 397.374 434.365, 391.888 437.450 M 393.098 439.371 C 387.610 441.815, 387.649 456.802, 393.149 458.547 C 399.721 460.633, 403.710 457.272, 404.395 449.068 C 405.093 440.711, 399.968 436.311, 393.098 439.371" stroke="none" fill="#e9e8e9" fill-rule="evenodd"/><path d="M 67 60.046 C 53.525 60.364, 42.275 60.771, 42 60.949 C 41.049 61.566, 54.540 62.753, 64.500 62.927 C 71.364 63.048, 75.206 63.564, 76.750 64.575 C 78.470 65.699, 79.004 65.746, 79.015 64.773 C 79.026 63.894, 79.330 63.964, 80 65 C 80.667 66.032, 80.974 66.104, 80.985 65.230 C 80.996 64.329, 82.163 64.553, 85 66 C 87.200 67.122, 89 68.283, 89 68.579 C 89 68.876, 88.550 68.840, 88 68.500 C 87.450 68.160, 87 68.864, 87 70.063 C 87 71.775, 86.711 72.005, 85.658 71.131 C 84.920 70.519, 84.007 70.326, 83.629 70.704 C 82.896 71.437, 82.875 71.443, 76 72.720 C 71.002 73.648, 70.405 75.194, 74.705 76.073 C 84.372 78.051, 283.944 78.122, 286.320 76.150 C 290.038 73.063, 289.110 62.200, 284.939 59.967 C 282.928 58.891, 113.302 58.953, 67 60.046 M 116.114 105.259 C 116.256 122.983, 117.562 147.924, 117.907 139.500 C 118.042 136.200, 118.350 132.600, 118.592 131.500 C 118.833 130.400, 119.117 128.744, 119.223 127.819 C 119.329 126.895, 119.775 126.361, 120.215 126.633 C 120.655 126.905, 121.739 126.404, 122.624 125.519 C 125.010 123.133, 126.315 124.082, 128.147 129.532 C 129.052 132.226, 130.293 134.598, 130.903 134.801 C 131.513 135.004, 131.719 135.695, 131.360 136.335 C 130.980 137.012, 131.291 136.956, 132.103 136.201 C 133.216 135.166, 133.500 130.491, 133.500 113.201 L 133.500 91.500 124.750 91.259 L 116 91.018 116.114 105.259 M 363.712 185.420 C 360.743 187.672, 360.260 191.674, 360.383 213.031 L 360.500 233.500 369 233.500 L 377.500 233.500 377.401 211.389 C 377.282 184.596, 373.716 177.832, 363.712 185.420 M 197.418 189.132 C 197.203 189.480, 197.921 190.901, 199.014 192.290 C 200.106 193.679, 201 195.359, 201 196.023 C 201 196.856, 201.765 196.729, 203.465 195.615 C 208.797 192.121, 216.153 195.282, 215.276 200.689 C 214.523 205.325, 217.063 205.999, 235.315 206.006 C 261.237 206.015, 271 213.200, 271 232.266 C 271 249.879, 258.239 258.888, 235 257.682 L 231.500 257.500 231.382 266.003 L 231.263 274.506 242.878 274.137 C 250.623 273.891, 255.151 273.307, 256.469 272.384 C 257.556 271.623, 259.807 270.995, 261.473 270.989 C 263.494 270.982, 266.494 269.484, 270.500 266.481 C 297.165 246.490, 294.241 206.597, 265.056 192.187 L 257.590 188.500 227.699 188.500 C 211.260 188.500, 197.633 188.785, 197.418 189.132 M 212.607 208.582 C 212.273 209.452, 212 211.477, 212 213.082 C 212 215.009, 211.491 216, 210.500 216 C 208.772 216, 208.487 219.087, 210.069 220.669 C 211.527 222.127, 211.932 225.360, 210.753 226.124 C 210.181 226.495, 210.477 227.799, 211.481 229.331 C 212.884 231.473, 213.142 234.188, 212.988 245.207 C 212.610 272.363, 213.199 299.714, 214.054 294.618 C 214.504 291.932, 214.841 275.057, 214.804 257.118 C 214.766 239.178, 214.848 224.050, 214.986 223.500 C 216.453 217.652, 214.302 204.163, 212.607 208.582 M 300.112 252.250 C 298.868 255.137, 296.555 259.134, 294.973 261.131 C 291.037 266.100, 285.423 265.760, 363.774 265.295 C 431.132 264.895, 448.069 264.143, 426.351 262.514 C 420.961 262.110, 415.527 261.390, 414.275 260.915 C 412.796 260.352, 412 260.420, 412 261.108 C 412 262.749, 409.704 261.591, 409.444 259.819 C 409.317 258.955, 408.915 257.307, 408.550 256.157 C 408.020 254.487, 408.400 253.938, 410.443 253.425 C 411.849 253.072, 413 252.355, 413 251.833 C 413 251.310, 413.412 251.136, 413.915 251.447 C 414.418 251.758, 415.018 251.447, 415.248 250.756 C 415.546 249.863, 418.470 249.500, 425.370 249.500 C 436.375 249.500, 436.960 249.865, 436.985 256.750 C 436.993 259.087, 437.398 261, 437.885 261 C 438.371 261, 438.769 258.668, 438.769 255.817 C 438.769 246.397, 444.168 247.071, 368.437 247.033 L 302.375 247 300.112 252.250 M 235.578 263.216 C 234.687 263.715, 234.223 264.553, 234.548 265.078 C 234.873 265.603, 235.670 265.705, 236.319 265.305 C 236.969 264.905, 236.677 265.836, 235.670 267.375 C 232.981 271.488, 250.576 274.281, 254.493 270.364 C 255.243 269.614, 256.474 269, 257.229 269 C 257.983 269, 259.140 268.460, 259.800 267.800 C 261.201 266.399, 261.434 263.614, 260.081 264.450 C 259.575 264.763, 258.562 264.438, 257.831 263.729 C 256.262 262.209, 238.125 261.791, 235.578 263.216 M 367.622 279.794 L 359.745 280.089 360.398 299.794 L 361.052 319.500 363.776 321.745 C 365.274 322.980, 367.625 323.990, 369 323.990 C 370.375 323.990, 372.698 322.980, 374.163 321.745 L 376.825 319.500 377.302 299.815 C 377.648 285.573, 377.464 280.042, 376.640 279.815 C 376.013 279.642, 371.955 279.632, 367.622 279.794 M -0 395.270 C -0 396.282, 45.416 396.529, 229.500 396.516 C 432.810 396.502, 459.008 396.671, 459.070 398 C 459.144 399.563, 460.792 396.460, 460.930 394.500 C 460.976 393.835, 383.704 393.585, 230.500 393.754 C 45.754 393.958, -0 394.259, -0 395.270 M 25.415 426.789 C 19.234 427.721, 19 427.907, 19 431.864 C 19 436.119, 21.678 439.445, 24.295 438.440 C 28.708 436.747, 29.494 439.057, 29.524 453.807 C 29.556 469.608, 30.074 471.009, 35.872 470.985 C 42.274 470.958, 42.470 470.524, 42.771 455.788 C 43.120 438.698, 43.166 438.513, 47.060 438.354 C 54.644 438.044, 56.011 427.230, 48.500 426.958 C 39.896 426.647, 26.987 426.552, 25.415 426.789 M 100 426.800 C 95.384 427.430, 95 429.089, 95 448.391 C 95 458.296, 94.624 465.973, 94.165 465.450 C 93.299 464.464, 89.876 455.644, 89.829 454.278 C 89.815 453.850, 89.306 452.600, 88.699 451.500 C 88.093 450.400, 87.507 449.050, 87.398 448.500 C 87.171 447.352, 84.177 438.240, 83.291 436 C 82.965 435.175, 82.577 433.914, 82.430 433.198 C 79.806 420.458, 67.194 424.666, 61.554 440.163 C 59.484 445.849, 57.545 451.175, 57.245 452 C 56.944 452.825, 56.575 453.950, 56.426 454.500 C 56.276 455.050, 55.123 458.263, 53.864 461.641 C 51.054 469.174, 51.952 471, 58.467 471 C 62.722 471, 64.992 469.488, 66.305 465.780 C 67.853 461.409, 77.467 462.429, 80.514 467.288 C 83.055 471.339, 91.016 472.549, 93.106 469.201 C 94.264 467.347, 94.346 467.346, 96.148 469.148 C 101.388 474.388, 107.910 470.918, 108.222 462.722 C 108.479 455.993, 110.472 456.213, 113.928 463.351 C 117.504 470.739, 118.316 471.112, 130.113 470.786 L 140.487 470.500 142.936 466.711 C 146.376 461.390, 154.281 461.430, 156.835 466.781 C 158.521 470.315, 160.832 471.334, 166.011 470.824 C 170.134 470.418, 171.839 468.020, 170.285 464.815 C 169.667 463.542, 167.029 456.200, 164.421 448.500 C 156.842 426.118, 157.139 426.521, 148.502 426.852 C 143.503 427.043, 138.865 433.876, 137.542 443 C 137.502 443.275, 137.199 443.950, 136.869 444.500 C 136.539 445.050, 135.046 449.212, 133.552 453.750 C 130.345 463.490, 129.227 463.875, 125.395 456.557 L 122.545 451.113 124.916 448.589 C 135.932 436.863, 121.128 423.917, 100 426.800 M 177.121 427.072 C 172.375 428.095, 170.032 445.989, 171.957 466.500 C 172.693 474.330, 184.689 472.331, 185.373 464.265 C 185.786 459.399, 186.662 457.842, 188.839 458.106 C 193.268 458.643, 201.148 454.002, 203.386 449.537 C 210.803 434.743, 196.860 422.818, 177.121 427.072 M 231 427.266 C 207.522 437.922, 213.587 471.538, 238.978 471.484 C 252.271 471.456, 261.953 461.990, 253.783 457.009 C 249.542 454.423, 248.548 454.480, 244.538 457.539 C 239.414 461.447, 231.542 458.525, 230.962 452.500 C 229.885 441.305, 236.941 434.714, 243.812 440.495 C 250.242 445.905, 259.003 441.775, 255.494 434.988 C 251.838 427.918, 238.694 423.774, 231 427.266 M 303.749 427.250 C 295.942 429.853, 298.329 471.014, 306.285 470.985 C 312.351 470.963, 313.215 470.074, 313.308 463.765 C 313.373 459.311, 313.679 458.371, 314.944 458.728 C 316.488 459.163, 321 465.336, 321 467.013 C 321 470.030, 332.860 472.654, 334.500 470 C 334.883 469.380, 333.044 469, 329.660 469 L 324.203 469 321.002 462.750 C 314.893 450.821, 310.497 450.260, 311.218 461.500 L 311.700 469 306.850 469 L 302 469 302 448.914 L 302 428.828 313.584 429.164 L 325.169 429.500 328.084 432.766 C 333.072 438.352, 331.341 448.487, 325.060 450.481 C 323.262 451.051, 323.279 451.188, 325.408 453.317 C 326.639 454.548, 329.138 458.355, 330.962 461.777 C 332.786 465.200, 334.626 468, 335.051 468 C 336.180 468, 335.619 465.451, 334.084 463.601 C 333.353 462.720, 333.148 461.993, 333.628 461.985 C 334.107 461.976, 333.994 461.639, 333.375 461.235 C 329.251 458.540, 327.387 451.281, 330.084 448.411 C 336.797 441.265, 332.024 429.194, 321.803 427.466 C 315.389 426.382, 306.667 426.278, 303.749 427.250 M 350.667 426.642 C 350.208 427.114, 349.421 427.556, 348.917 427.625 C 348.413 427.694, 347.588 427.806, 347.084 427.875 C 345.626 428.074, 338.378 435.269, 337.047 437.838 C 332.653 446.319, 334.542 459.542, 341.083 466.083 C 350.672 475.672, 374 472.387, 374 461.448 C 374 457.148, 375.246 456.427, 376.808 459.822 C 385.181 478.016, 412.755 474.771, 417.785 455 C 424.676 427.910, 389.718 414.115, 377.321 439.033 C 375.573 442.547, 374.385 445.814, 374.681 446.293 C 374.978 446.773, 373.754 446.407, 371.963 445.481 C 364.018 441.372, 353 443.970, 353 449.952 C 353 454.033, 356.544 458.018, 358.887 456.570 C 359.423 456.239, 360.145 456.426, 360.491 456.986 C 361.928 459.311, 355.879 460.121, 352.629 458.038 C 350.908 456.936, 349.893 456.026, 350.372 456.017 C 350.852 456.008, 350.783 455.438, 350.220 454.750 C 349.177 453.479, 348.690 450.347, 348.889 446.205 C 349.160 440.591, 359.537 436.327, 362.942 440.430 C 364.326 442.097, 367.234 441.732, 370.711 439.454 C 374.270 437.121, 372.878 436.614, 368.565 438.671 C 366.079 439.856, 364.657 440.081, 364.191 439.363 C 359.922 432.791, 348.633 436.968, 347.070 445.697 C 345.279 455.696, 351.223 463.119, 359.740 461.521 C 365.280 460.482, 364.643 454, 359 454 L 355 454 355 450 L 355 446 363.500 446 L 372 446 372 455.877 L 372 465.754 367.065 467.877 C 351.493 474.576, 336.628 465.541, 336.729 449.439 C 336.847 430.595, 358.388 420.589, 370.613 433.699 C 372.695 435.932, 373.151 436.116, 372.862 434.608 C 371.854 429.342, 354.198 423.006, 350.667 426.642 M 271.249 428.250 C 270.701 428.938, 269.229 432.425, 267.978 436 C 266.726 439.575, 264.149 446.550, 262.250 451.500 C 255.399 469.361, 255.514 471, 263.610 471 C 267.615 471, 268.183 470.670, 270.500 467 C 274.194 461.148, 285 461.548, 285 467.536 C 285 470.651, 295.154 472.446, 297.800 469.800 C 299.159 468.441, 299.439 464, 298.167 464 C 297.708 464, 297.333 463.418, 297.333 462.707 C 297.333 461.996, 296.186 458.284, 294.784 454.457 C 293.383 450.631, 290.772 443.450, 288.982 438.500 C 284.802 426.935, 284.864 427, 278 427 C 274.594 427, 271.838 427.510, 271.249 428.250 M 231.500 429.202 C 214.402 435.151, 214.402 464.160, 231.500 468.884 C 241.410 471.622, 256.093 466.364, 255.990 460.115 C 255.956 458.091, 247.974 456.180, 247.017 457.967 C 243.535 464.475, 229.267 460.695, 228.923 453.173 C 228.881 452.253, 228.695 450.704, 228.509 449.731 C 226.599 439.728, 239.308 432.109, 245.679 439.439 C 247.836 441.921, 252.283 441.712, 255.327 438.986 C 260.603 434.262, 240.584 426.041, 231.500 429.202 M 389.007 429.593 C 381.308 432.932, 376.818 440.039, 376.734 449.023 C 376.485 475.459, 413.537 477.596, 416.648 451.324 C 418.558 435.196, 403.459 423.326, 389.007 429.593 M 21 433.008 L 21 437.017 26.404 436.492 L 31.809 435.967 31.347 452.484 L 30.885 469 35.943 469 L 41 469 41 452.428 L 41 435.857 46.250 436.178 L 51.500 436.500 51.650 432.750 L 51.800 429 36.400 429 L 21 429 21 433.008 M 62.609 442.750 C 59.924 450.313, 56.675 459.336, 55.389 462.801 L 53.051 469.103 58.275 468.801 C 63.402 468.506, 63.517 468.429, 64.426 464.750 L 65.353 461 72.636 461 L 79.920 461 81.118 465 C 82.316 468.997, 82.321 469, 87.488 469 L 92.660 469 85.681 449 L 78.702 429 73.096 429 L 67.490 429 62.609 442.750 M 97 448.914 L 97 469 102.079 469 L 107.159 469 106.591 461.500 C 105.745 450.319, 109.927 450.888, 116.019 462.783 L 119.237 469.065 129.868 468.783 L 140.500 468.500 141.426 464.750 L 142.353 461 149.636 461 L 156.920 461 158.118 465 C 159.316 468.997, 159.321 469, 164.488 469 L 169.660 469 162.681 449 L 155.702 429 150.086 429 L 144.471 429 137.538 448.500 C 129.624 470.762, 130.323 469.960, 125.962 461.777 C 124.138 458.355, 121.639 454.548, 120.408 453.317 C 118.279 451.188, 118.262 451.051, 120.060 450.481 C 126.341 448.487, 128.072 438.352, 123.084 432.766 L 120.169 429.500 108.584 429.164 L 97 428.828 97 448.914 M 174 449 L 174 469 178.926 469 L 183.851 469 183.337 462.500 L 182.822 456 187.443 456 C 199.227 456, 206.570 447.041, 202.834 437.223 C 200.379 430.773, 196.394 429, 184.352 429 L 174 429 174 449 M 267.609 442.750 C 264.924 450.313, 261.675 459.336, 260.389 462.801 L 258.051 469.103 263.275 468.801 C 268.412 468.505, 268.516 468.436, 269.436 464.711 L 270.372 460.923 277.901 461.211 L 285.431 461.500 286.315 465.250 C 287.197 468.993, 287.209 469, 292.430 469 L 297.660 469 290.681 449 L 283.702 429 278.096 429 L 272.490 429 267.609 442.750 M 183.434 442.607 L 183.369 449.214 187.305 448.686 C 196.504 447.452, 196.003 436, 186.750 436 L 183.500 436 183.434 442.607 M 391.888 437.450 C 386.612 440.418, 384.776 451.521, 388.687 456.807 C 396.887 467.889, 410.638 457.555, 406.078 443.738 C 403.946 437.277, 397.374 434.365, 391.888 437.450 M 393.098 439.371 C 387.610 441.815, 387.649 456.802, 393.149 458.547 C 399.721 460.633, 403.710 457.272, 404.395 449.068 C 405.093 440.711, 399.968 436.311, 393.098 439.371" stroke="none" fill="#e9e8e9" fill-rule="evenodd"/><path d="M 23 59.694 C 21.094 60.375, 19 62.991, 19 64.691 C 19 66.360, 21.906 66.409, 22.541 64.750 C 23.042 63.443, 30.476 63.314, 36.843 64.502 C 39.881 65.069, 40.124 65.370, 39.512 67.807 C 38.460 71.998, 37.303 72.769, 32.065 72.769 C 29.379 72.769, 26.711 73.061, 26.135 73.417 C 24.606 74.361, 25.911 76.972, 27.589 76.327 C 28.372 76.027, 41.272 76.286, 56.256 76.902 C 91.618 78.357, 138.824 79.094, 139.376 78.200 C 139.614 77.815, 128.039 77.367, 113.654 77.205 C 71.830 76.734, 61.638 75.381, 77.500 72.405 C 79.700 71.993, 81.800 71.620, 82.167 71.578 C 82.533 71.535, 83.167 71.166, 83.575 70.759 C 83.982 70.351, 84.920 70.519, 85.658 71.131 C 86.711 72.005, 87 71.775, 87 70.063 C 87 68.864, 87.450 68.160, 88 68.500 C 88.550 68.840, 89 68.876, 89 68.579 C 89 68.283, 87.200 67.122, 85 66 C 82.163 64.553, 80.996 64.329, 80.985 65.230 C 80.974 66.104, 80.667 66.032, 80 65 C 79.330 63.964, 79.026 63.894, 79.015 64.773 C 79.004 65.746, 78.470 65.699, 76.750 64.575 C 75.206 63.564, 71.364 63.048, 64.500 62.927 C 54.540 62.753, 41.049 61.566, 42 60.949 C 42.275 60.771, 53.525 60.353, 67 60.020 L 91.500 59.415 58 59.286 C 39.575 59.216, 23.825 59.399, 23 59.694 M 133.500 113.050 C 133.500 130.469, 133.217 135.166, 132.103 136.201 C 131.291 136.956, 130.980 137.013, 131.360 136.335 C 131.719 135.695, 131.513 135.004, 130.903 134.801 C 130.293 134.598, 129.052 132.226, 128.147 129.532 C 126.315 124.082, 125.010 123.133, 122.624 125.519 C 121.739 126.404, 120.655 126.905, 120.215 126.633 C 119.775 126.361, 119.329 126.895, 119.223 127.819 C 119.117 128.744, 118.833 130.400, 118.592 131.500 C 118.350 132.600, 118.029 136.200, 117.877 139.500 C 117.681 143.754, 117.424 142.154, 116.994 134 C 116.660 127.675, 116.314 145.599, 116.224 173.831 C 116.067 223.109, 116.521 237.781, 118.025 232 C 118.585 229.846, 119.110 220.581, 119.457 206.753 C 119.509 204.674, 120.373 202.046, 121.397 200.850 C 122.970 199.012, 123.724 195.261, 123.956 188.128 C 123.992 187.016, 124.288 186.994, 125.513 188.011 C 126.345 188.702, 126.948 189.769, 126.853 190.383 C 126.757 190.998, 127.220 192.815, 127.880 194.422 C 128.541 196.030, 128.850 197.948, 128.567 198.686 C 127.392 201.747, 126.893 209.170, 127.787 210.292 C 128.758 211.511, 130.033 217.019, 130.092 220.250 C 130.110 221.213, 130.532 222, 131.031 222 C 131.529 222, 131.660 222.787, 131.321 223.750 C 130.852 225.085, 130.994 225.235, 131.921 224.382 C 133.800 222.653, 136.110 92.800, 134.281 91.677 C 133.852 91.413, 133.500 101.031, 133.500 113.050 M 197.711 241 C 198.445 315.011, 198.982 324.805, 202.039 319.971 C 202.551 319.162, 202.976 316.865, 202.985 314.867 C 203.012 308.453, 208.421 309.078, 209.610 315.632 C 209.890 317.175, 210.535 318.940, 211.045 319.554 C 213.411 322.405, 213.096 352.795, 210.715 351.324 C 210.132 350.963, 210.407 351.743, 211.327 353.057 C 212.247 354.370, 213.039 356.807, 213.086 358.473 L 213.172 361.500 213.980 358.822 C 215.046 355.292, 216.268 240.846, 215.256 239.325 C 214.826 238.678, 214.582 249.703, 214.714 263.825 C 214.846 277.946, 214.568 291.750, 214.095 294.500 C 213.195 299.734, 212.599 273.164, 212.988 245.207 C 213.142 234.188, 212.884 231.473, 211.481 229.331 C 210.477 227.799, 210.181 226.495, 210.753 226.124 C 211.932 225.360, 211.527 222.127, 210.069 220.669 C 208.487 219.087, 208.772 216, 210.500 216 C 211.491 216, 212 215.009, 212 213.082 C 212 203.921, 214.961 205.465, 215.199 214.750 L 215.397 222.500 215.746 215.076 C 215.997 209.724, 216.542 207.324, 217.695 206.481 C 219.108 205.448, 219.028 205.241, 217.008 204.712 C 215.045 204.199, 214.797 203.639, 215.263 200.769 C 216.141 195.355, 208.853 192.085, 203.590 195.533 C 201.295 197.037, 199.377 195.023, 199.917 191.676 C 199.990 191.222, 199.627 191.113, 199.110 191.432 C 198.594 191.751, 197.952 191.447, 197.685 190.756 C 197.418 190.065, 197.430 212.675, 197.711 241 M 136 242.839 C 136 244.321, 139.895 247.833, 142.426 248.632 C 143.567 248.992, 145.088 250.122, 145.807 251.143 C 146.525 252.165, 148.040 253, 149.173 253 C 150.704 253, 151.106 253.488, 150.737 254.899 C 150.340 256.415, 150.720 256.745, 152.620 256.536 C 153.929 256.393, 155 256.633, 155 257.070 C 155 258.583, 158.883 259.090, 160.887 257.839 C 162.383 256.904, 162.624 256.252, 161.827 255.291 C 161.004 254.300, 161.287 254, 163.044 254 C 164.303 254, 165.041 254.293, 164.683 254.650 C 164.325 255.008, 165.230 256.411, 166.694 257.767 C 169.223 260.111, 169.422 260.144, 170.678 258.426 C 171.790 256.905, 172 256.869, 172 258.202 C 172 259.919, 174.618 261.354, 176.090 260.444 C 176.591 260.135, 177 260.373, 177 260.972 C 177 262.464, 173.952 263.524, 173.149 262.311 C 172.183 260.853, 166 262.770, 166 264.529 C 166 265.338, 166.338 265.947, 166.750 265.882 C 167.162 265.816, 167.725 265.843, 168 265.942 C 168.275 266.040, 171.537 266.316, 175.250 266.556 L 182 266.992 182.041 263.746 C 182.064 261.961, 182.331 257.913, 182.636 254.750 L 183.189 249 165.045 249 C 147.364 249, 142.577 248.257, 140 245.110 C 138.514 243.297, 136 241.869, 136 242.839 M 416.750 249.705 C 415.788 249.948, 415 250.590, 415 251.132 C 415 251.674, 414.550 251.840, 414 251.500 C 413.450 251.160, 413 251.310, 413 251.833 C 413 252.355, 411.849 253.072, 410.443 253.425 C 408.400 253.938, 408.020 254.487, 408.550 256.157 C 408.915 257.307, 409.317 258.955, 409.444 259.819 C 409.704 261.591, 412 262.749, 412 261.108 C 412 260.420, 412.796 260.352, 414.275 260.915 C 415.527 261.390, 420.921 262.107, 426.261 262.508 C 446.039 263.990, 433.734 265.007, 393.191 265.239 L 351.500 265.477 392.934 265.750 L 434.367 266.022 437.184 263.324 C 439.585 261.024, 439.985 259.879, 439.900 255.563 C 439.823 251.630, 439.631 251.058, 439.040 253 C 438.621 254.375, 438.497 256.738, 438.764 258.250 C 439.057 259.908, 438.803 261, 438.125 261 C 437.471 261, 436.994 259.222, 436.985 256.750 C 436.961 250.102, 436.243 249.584, 426.806 249.414 C 422.238 249.331, 417.712 249.462, 416.750 249.705 M 235.578 263.216 C 234.687 263.715, 234.223 264.553, 234.548 265.078 C 234.873 265.603, 235.670 265.705, 236.319 265.305 C 236.969 264.905, 236.677 265.836, 235.670 267.375 C 232.981 271.488, 250.576 274.281, 254.493 270.364 C 255.243 269.614, 256.474 269, 257.229 269 C 257.983 269, 259.140 268.460, 259.800 267.800 C 261.201 266.399, 261.434 263.614, 260.081 264.450 C 259.575 264.763, 258.562 264.438, 257.831 263.729 C 256.262 262.209, 238.125 261.791, 235.578 263.216 M 1.679 396.823 C 0.127 397.122, 0 402.145, 0 463.073 L 0 529 229.500 529 L 459 529 459.070 526.750 C 459.137 524.603, 459.180 524.592, 460 526.500 C 460.490 527.641, 460.847 499.937, 460.830 462 C 460.814 425.425, 460.440 396.625, 460 398 C 459.336 400.072, 459.182 400.158, 459.100 398.500 C 459.010 396.698, 10.859 395.055, 1.679 396.823 M 0.472 463 C 0.472 499.575, 0.597 514.538, 0.750 496.250 C 0.902 477.962, 0.902 448.038, 0.750 429.750 C 0.597 411.462, 0.472 426.425, 0.472 463 M 25.415 426.789 C 19.234 427.721, 19 427.907, 19 431.864 C 19 436.119, 21.678 439.445, 24.295 438.440 C 28.708 436.747, 29.494 439.057, 29.524 453.807 C 29.556 469.608, 30.074 471.009, 35.872 470.985 C 42.274 470.958, 42.470 470.524, 42.771 455.788 C 43.120 438.698, 43.166 438.513, 47.060 438.354 C 54.644 438.044, 56.011 427.230, 48.500 426.958 C 39.896 426.647, 26.987 426.552, 25.415 426.789 M 100 426.800 C 95.384 427.430, 95 429.089, 95 448.391 C 95 458.296, 94.624 465.973, 94.165 465.450 C 93.299 464.464, 89.876 455.644, 89.829 454.278 C 89.815 453.850, 89.306 452.600, 88.699 451.500 C 88.093 450.400, 87.507 449.050, 87.398 448.500 C 87.171 447.352, 84.177 438.240, 83.291 436 C 82.965 435.175, 82.577 433.914, 82.430 433.198 C 79.806 420.458, 67.194 424.666, 61.554 440.163 C 59.484 445.849, 57.545 451.175, 57.245 452 C 56.944 452.825, 56.575 453.950, 56.426 454.500 C 56.276 455.050, 55.123 458.263, 53.864 461.641 C 51.054 469.174, 51.952 471, 58.467 471 C 62.722 471, 64.992 469.488, 66.305 465.780 C 67.734 461.744, 77.923 462.341, 79.851 466.573 C 80.488 467.970, 81.468 468.829, 82.029 468.482 C 82.590 468.135, 82.926 468.447, 82.775 469.176 C 82.576 470.135, 83.879 470.500, 87.500 470.500 C 91.121 470.500, 92.424 470.135, 92.225 469.176 C 92.074 468.447, 92.412 468.136, 92.975 468.485 C 93.539 468.833, 94 468.641, 94 468.059 C 94 467.477, 94.900 467.900, 96 469 C 101.388 474.388, 107.905 471.041, 108.222 462.722 C 108.479 455.993, 110.472 456.213, 113.928 463.351 C 117.504 470.739, 118.316 471.112, 130.113 470.786 L 140.487 470.500 142.936 466.711 C 146.376 461.390, 154.281 461.430, 156.835 466.781 C 158.528 470.330, 160.820 471.329, 166.112 470.824 C 168.279 470.617, 169.401 470.023, 169.225 469.176 C 169.074 468.447, 169.412 468.136, 169.975 468.485 C 171.258 469.277, 171.314 466.555, 170.063 464.236 C 169.548 463.281, 167.001 456.200, 164.403 448.500 C 156.859 426.135, 157.142 426.521, 148.502 426.852 C 143.503 427.043, 138.865 433.876, 137.542 443 C 137.502 443.275, 137.199 443.950, 136.869 444.500 C 136.539 445.050, 135.046 449.212, 133.552 453.750 C 130.345 463.490, 129.227 463.875, 125.395 456.557 L 122.545 451.113 124.916 448.589 C 135.932 436.863, 121.128 423.917, 100 426.800 M 177.121 427.072 C 172.375 428.095, 170.032 445.989, 171.957 466.500 C 172.693 474.330, 184.689 472.331, 185.373 464.265 C 185.786 459.399, 186.662 457.842, 188.839 458.106 C 193.268 458.643, 201.148 454.002, 203.386 449.537 C 210.803 434.743, 196.860 422.818, 177.121 427.072 M 231 427.266 C 207.522 437.922, 213.587 471.538, 238.978 471.484 C 252.271 471.456, 261.953 461.990, 253.783 457.009 C 249.542 454.423, 248.548 454.480, 244.538 457.539 C 239.414 461.447, 231.542 458.525, 230.962 452.500 C 229.885 441.305, 236.941 434.714, 243.812 440.495 C 250.242 445.905, 259.003 441.775, 255.494 434.988 C 251.838 427.918, 238.694 423.774, 231 427.266 M 303.749 427.250 C 295.942 429.853, 298.329 471.014, 306.285 470.985 C 312.351 470.963, 313.215 470.074, 313.308 463.765 C 313.373 459.311, 313.679 458.371, 314.944 458.728 C 316.488 459.163, 321 465.336, 321 467.013 C 321 470.027, 332.859 472.655, 334.498 470.004 C 335.820 467.863, 335.794 465.074, 334.441 463.951 C 333.661 463.303, 333.269 462.374, 333.570 461.887 C 333.871 461.399, 333.721 461, 333.236 461 C 329.990 461, 327.520 451.140, 330.084 448.411 C 336.797 441.265, 332.024 429.194, 321.803 427.466 C 315.389 426.382, 306.667 426.278, 303.749 427.250 M 350.667 426.642 C 350.208 427.114, 349.421 427.556, 348.917 427.625 C 348.413 427.694, 347.588 427.806, 347.084 427.875 C 345.626 428.074, 338.378 435.269, 337.047 437.838 C 332.653 446.319, 334.542 459.542, 341.083 466.083 C 350.672 475.672, 374 472.387, 374 461.448 C 374 457.148, 375.246 456.427, 376.808 459.822 C 385.181 478.016, 412.755 474.771, 417.785 455 C 424.676 427.910, 389.718 414.115, 377.321 439.033 C 375.573 442.547, 374.385 445.814, 374.681 446.293 C 374.978 446.773, 373.754 446.407, 371.963 445.481 C 364.018 441.372, 353 443.970, 353 449.952 C 353 454.033, 356.544 458.018, 358.887 456.570 C 359.423 456.239, 360.145 456.426, 360.491 456.986 C 361.928 459.311, 355.879 460.121, 352.629 458.038 C 350.908 456.936, 349.893 456.026, 350.372 456.017 C 350.852 456.008, 350.783 455.438, 350.220 454.750 C 349.177 453.479, 348.690 450.347, 348.889 446.205 C 349.160 440.591, 359.537 436.327, 362.942 440.430 C 365.471 443.477, 372.762 439.705, 372.602 435.433 C 372.385 429.644, 354.653 422.538, 350.667 426.642 M 271.249 428.250 C 270.701 428.938, 269.229 432.425, 267.978 436 C 266.726 439.575, 264.149 446.550, 262.250 451.500 C 255.399 469.361, 255.514 471, 263.610 471 C 267.615 471, 268.183 470.670, 270.500 467 C 274.194 461.148, 285 461.548, 285 467.536 C 285 470.651, 295.154 472.446, 297.800 469.800 C 299.159 468.441, 299.439 464, 298.167 464 C 297.708 464, 297.333 463.418, 297.333 462.707 C 297.333 461.996, 296.186 458.284, 294.784 454.457 C 293.383 450.631, 290.772 443.450, 288.982 438.500 C 284.802 426.935, 284.864 427, 278 427 C 274.594 427, 271.838 427.510, 271.249 428.250 M 393.098 439.371 C 387.610 441.815, 387.649 456.802, 393.149 458.547 C 399.721 460.633, 403.710 457.272, 404.395 449.068 C 405.093 440.711, 399.968 436.311, 393.098 439.371" stroke="none" fill="#dcdcdc" fill-rule="evenodd"/><path d="M 0 197.002 L 0 394.004 230.250 393.752 L 460.500 393.500 460.752 196.750 L 461.005 0 230.502 0 L 0 0 0 197.002 M 0.490 197.500 C 0.490 305.850, 0.607 350.323, 0.750 296.330 C 0.893 242.336, 0.893 153.686, 0.750 99.330 C 0.607 44.973, 0.490 89.150, 0.490 197.500 M 42.500 58.006 C 20.651 58.560, 20.299 58.632, 17.750 63.097 C 15.018 67.881, 15.504 71.438, 19.425 75.359 L 22.851 78.784 50.015 78.889 C 64.956 78.946, 77.552 79.223, 78.006 79.504 C 80.035 80.758, 275.967 79.746, 283.798 78.441 C 291.929 77.086, 292.933 61.578, 285.092 58.460 C 283.160 57.691, 70.635 57.294, 42.500 58.006 M 114.969 90.715 C 113.823 119.726, 115.375 238.912, 116.963 243.884 C 127.401 276.559, 186.757 281.303, 184.103 249.250 C 184.025 248.303, 179.815 247.995, 166.750 247.978 C 147.515 247.954, 144.215 247.145, 138.500 241.056 L 135.500 237.859 135.500 164.179 L 135.500 90.500 125.250 90.215 C 119.612 90.058, 114.986 90.283, 114.969 90.715 M 363.412 183.891 C 358.644 186.798, 357.874 191.332, 358.210 214.500 L 358.500 234.500 368.500 234.500 L 378.500 234.500 378.769 211.669 L 379.038 188.838 375.619 185.419 C 371.663 181.463, 368.121 181.019, 363.412 183.891 M 196.221 187.871 C 194.567 192.165, 196.976 369.093, 198.722 371.512 C 200.905 374.536, 206.844 376.390, 210.228 375.103 C 216.109 372.867, 215.842 376.528, 216.514 288.912 C 216.853 244.740, 217.354 208.236, 217.628 207.793 C 219.010 205.557, 253.545 207.687, 257.575 210.257 C 280.912 225.142, 271.961 253.925, 243.660 255 L 230.500 255.500 230.215 265.750 L 229.930 276 241.808 276 C 295.738 276, 309.724 204.373, 259 187.956 C 252.591 185.882, 197.017 185.807, 196.221 187.871 M 301.025 246.500 C 300.579 247.050, 299.581 249.300, 298.807 251.500 C 297.077 256.414, 293.122 263, 291.901 263 C 291.406 263, 291 263.902, 291 265.004 C 291 266.992, 291.601 267.008, 363.120 266.961 L 435.240 266.914 438.120 264.034 C 442.018 260.135, 442.242 252.554, 438.584 248.306 L 436.169 245.500 369.002 245.500 C 325.431 245.500, 301.550 245.851, 301.025 246.500 M 359.802 279.271 C 356.791 280.382, 357.643 316.693, 360.779 320.925 C 364.702 326.218, 371.018 326.653, 376.027 321.975 L 379 319.198 379 299.166 C 379 280.687, 378.859 279.090, 377.183 278.558 C 374.769 277.792, 362.438 278.297, 359.802 279.271 M 233.177 429.150 C 219.039 432.409, 213.878 454.333, 224.903 464.294 C 232.748 471.381, 244.588 471.337, 252.250 464.191 C 257.496 459.298, 251.303 454.884, 245.750 459.557 C 239.423 464.880, 230.039 461.054, 228.433 452.496 C 226.112 440.122, 237.980 430.480, 245.519 438.616 C 247.292 440.528, 248.556 441.068, 250.222 440.624 C 262.409 437.379, 245.846 426.230, 233.177 429.150 M 352.358 428.932 C 340.124 431.934, 333.452 446.591, 338.880 458.541 C 343.728 469.215, 357.082 472.657, 369.250 466.369 C 371.940 464.980, 372 464.753, 372 455.974 L 372 447 363.500 447 L 355 447 355 450.500 C 355 453.925, 355.087 454, 359.060 454 L 363.121 454 362.810 457.750 C 362.101 466.325, 348.215 461.994, 346.462 452.650 C 344.208 440.635, 354.845 431.195, 363.103 437.882 C 367.502 441.444, 373.871 437.053, 369.750 433.299 C 365.262 429.211, 358.323 427.469, 352.358 428.932 M 392.500 428.914 C 371.940 434.066, 371.481 464.078, 391.887 468.973 C 405.949 472.346, 416.816 462.151, 415.820 446.520 C 415.032 434.139, 404.220 425.976, 392.500 428.914 M 21 432.500 L 21 436 26.500 436 L 32 436 32 452.500 L 32 469 36.603 469 L 41.206 469 40.853 452.500 L 40.500 436 45.750 436 L 51 436 51 432.500 L 51 429 36 429 L 21 429 21 432.500 M 67.513 430.197 C 58.633 455.095, 54 468.256, 54 468.585 C 54 471.701, 62.834 468.496, 63.882 465 L 65.080 461 72.882 461 L 80.683 461 81.882 465 C 82.893 468.376, 92.117 471.798, 91.990 468.750 C 91.984 468.613, 88.903 459.725, 85.144 449 L 78.309 429.500 73.143 429.197 C 69.580 428.989, 67.834 429.299, 67.513 430.197 M 97 449 L 97 469 101.500 469 L 106 469 106 461.500 C 106 450.063, 109.925 450.581, 116.500 462.886 C 119.234 468.002, 129 472.372, 129 468.479 C 129 466.820, 120.698 453.902, 118.759 452.544 C 117.547 451.695, 117.071 451, 117.701 451 C 120.164 451, 124.948 445.792, 125.580 442.423 C 127.283 433.346, 121.096 429.057, 106.250 429.022 L 97 429 97 449 M 144.513 430.197 C 135.633 455.095, 131 468.256, 131 468.585 C 131 471.701, 139.834 468.496, 140.882 465 L 142.080 461 149.882 461 L 157.683 461 158.882 465 C 159.893 468.376, 169.117 471.798, 168.990 468.750 C 168.984 468.613, 165.903 459.725, 162.144 449 L 155.309 429.500 150.143 429.197 C 146.580 428.989, 144.834 429.299, 144.513 430.197 M 174.127 448.888 L 174.158 469 178.579 469 L 183 469 183 462.638 L 183 456.275 188.586 455.619 C 198.724 454.427, 203 450.387, 203 442 C 203 432.576, 199.021 429.856, 184.298 429.219 L 174.097 428.777 174.127 448.888 M 272.513 430.197 C 263.633 455.095, 259 468.256, 259 468.585 C 259 471.701, 267.834 468.496, 268.882 465 L 270.080 461 277.882 461 L 285.683 461 286.882 465 C 288.051 468.901, 288.192 469, 292.608 469 C 296.469 469, 297.051 468.743, 296.566 467.250 C 296.254 466.288, 293.138 457.400, 289.642 447.500 L 283.287 429.500 278.132 429.197 C 274.578 428.989, 272.833 429.299, 272.513 430.197 M 302.163 449 L 302.204 469 306.602 469 L 311 469 311 461.500 C 311 450.063, 314.925 450.581, 321.500 462.886 C 324.234 468.002, 334 472.372, 334 468.479 C 334 466.820, 325.698 453.902, 323.759 452.544 C 322.547 451.695, 322.071 451, 322.701 451 C 325.164 451, 329.948 445.792, 330.580 442.423 C 332.280 433.361, 326.092 429.057, 311.311 429.022 L 302.121 429 302.163 449 M 106 440.911 L 106 447 109.943 447 C 119.200 447, 119.473 436.687, 110.250 435.410 L 106 434.822 106 440.911 M 311 441 L 311 447 314.977 447 C 321.957 447, 324.650 438.338, 318.407 435.965 C 312.205 433.607, 311 434.426, 311 441 M 183 442.500 L 183 449 186.845 449 C 191.458 449, 194 446.629, 194 442.326 C 194 438.385, 191.237 436, 186.671 436 L 183 436 183 442.500 M 391.217 437.561 C 381.729 444.206, 385.811 462, 396.823 462 C 405.020 462, 410.051 449.800, 405.490 440.980 C 402.889 435.950, 395.905 434.277, 391.217 437.561" stroke="none" fill="#1d1d1d" fill-rule="evenodd"/></svg>