<svg xmlns="http://www.w3.org/2000/svg" width="603" height="98" fill="none"><path fill="#000" d="M178.83 0H0v11.8h82.692v83.512h13.551V11.8h82.587V0Zm154.425 0h-71.841v11.8h29.176v83.512h13.551V11.8h29.114V0Z"/><path fill="#000" d="M372.345 35.435c-2.637-3.046-5.911-5.403-9.822-7.066-3.912-1.663-8.439-2.497-13.583-2.497s-9.598.834-13.488 2.497c-3.89 1.663-7.154 4.02-9.79 7.066-2.637 3.047-4.626 6.689-5.967 10.925-1.34 4.237-2.009 8.992-2.009 14.266v1.75c0 5.231.669 9.986 2.009 14.265 1.339 4.28 3.327 7.934 5.967 10.957 2.636 3.026 5.9 5.371 9.79 7.035 3.89 1.663 8.386 2.496 13.488 2.496 5.101 0 9.671-.833 13.583-2.496 3.911-1.664 7.185-4.01 9.822-7.035 2.636-3.025 4.625-6.678 5.966-10.957 1.338-4.279 2.01-9.034 2.01-14.265v-1.75c0-5.274-.672-10.029-2.01-14.266-1.341-4.236-3.33-7.878-5.966-10.925Zm-5.837 27.2c0 3.674-.336 6.972-1.005 9.889-.672 2.917-1.719 5.413-3.144 7.49-1.426 2.073-3.253 3.662-5.48 4.765-2.227 1.103-4.874 1.653-7.942 1.653-3.068 0-5.651-.55-7.878-1.653-2.227-1.103-4.052-2.69-5.48-4.766-1.425-2.076-2.475-4.572-3.144-7.49-.672-2.916-1.005-6.214-1.005-9.888V60.3c0-3.63.333-6.905 1.005-9.822.669-2.917 1.719-5.403 3.144-7.455a14.57 14.57 0 0 1 5.48-4.766c2.227-1.124 4.853-1.684 7.878-1.684 3.026 0 5.715.563 7.942 1.684a14.584 14.584 0 0 1 5.48 4.766c1.425 2.052 2.472 4.538 3.144 7.455.669 2.917 1.005 6.191 1.005 9.822v2.335ZM403.83 0h-13.033v95.312h13.033V0Zm65.226 35.435c-2.637-3.046-5.911-5.403-9.822-7.066-3.912-1.663-8.442-2.497-13.583-2.497s-9.598.834-13.488 2.497c-3.89 1.663-7.154 4.02-9.79 7.066-2.637 3.047-4.626 6.689-5.967 10.925-1.34 4.237-2.01 8.992-2.01 14.266v1.75c0 5.231.67 9.986 2.01 14.265 1.339 4.28 3.327 7.934 5.967 10.957 2.636 3.026 5.9 5.371 9.79 7.035 3.89 1.663 8.386 2.496 13.488 2.496 5.101 0 9.671-.833 13.583-2.496 3.911-1.664 7.185-4.01 9.822-7.035 2.636-3.025 4.625-6.678 5.966-10.957 1.338-4.279 2.01-9.034 2.01-14.265v-1.75c0-5.274-.672-10.029-2.01-14.266-1.341-4.236-3.33-7.878-5.966-10.925Zm-5.834 27.2c0 3.674-.336 6.972-1.005 9.889-.672 2.917-1.719 5.413-3.145 7.49-1.425 2.073-3.253 3.662-5.479 4.765-2.227 1.103-4.875 1.653-7.942 1.653-3.068 0-5.652-.55-7.879-1.653-2.226-1.103-4.051-2.69-5.479-4.766-1.426-2.076-2.476-4.572-3.145-7.49-.672-2.916-1.005-6.214-1.005-9.888V60.3c0-3.63.333-6.905 1.005-9.822.669-2.917 1.719-5.403 3.145-7.455a14.566 14.566 0 0 1 5.479-4.766c2.227-1.124 4.853-1.684 7.879-1.684 3.025 0 5.715.563 7.942 1.684a14.589 14.589 0 0 1 5.479 4.766c1.426 2.052 2.473 4.538 3.145 7.455.669 2.917 1.005 6.191 1.005 9.822v2.335ZM487.088 0v95.312h12.903V65.145l26.195 30.167h16.923l-31.765-35.977 30.144-31.585h-15.886l-25.611 28.184V0h-12.903Zm114.209 90.742a62.897 62.897 0 0 1-.55-4.863 85.376 85.376 0 0 1-.227-5.511 542.959 542.959 0 0 1-.032-6.517l.13-20.747c0-3.285-.26-6.233-.778-8.852-.518-2.615-1.285-4.937-2.301-6.97-1.015-2.032-2.279-3.772-3.792-5.221a19.587 19.587 0 0 0-5.221-3.565c-1.967-.928-4.16-1.621-6.579-2.076-2.42-.455-5.036-.68-7.847-.68-4.02 0-7.651.529-10.893 1.59-3.243 1.06-6.03 2.56-8.365 4.506-2.335 1.944-4.192 4.324-5.575 7.133-1.383 2.81-2.182 5.966-2.399 9.465h13.226c.087-2.076.431-3.901 1.037-5.48.605-1.576 1.481-2.885 2.626-3.922 1.145-1.037 2.56-1.825 4.247-2.367 1.685-.54 3.652-.81 5.9-.81 2.119 0 4.02.305 5.705.908 1.684.605 3.113 1.534 4.279 2.787 1.166 1.254 2.063 2.864 2.689 4.832.627 1.968.939 4.29.939 6.971v2.22c-6.305.346-12.07.954-17.288 1.824-5.289.883-9.809 2.208-13.559 3.972-3.75 1.767-6.669 4.07-8.809 6.924-2.139 2.853-3.211 6.418-3.211 10.697v.39c0 3.154.595 5.955 1.786 8.396 1.19 2.44 2.821 4.506 4.9 6.19 2.076 1.686 4.52 2.963 7.334 3.825a29.868 29.868 0 0 0 8.872 1.336c2.507 0 4.837-.21 6.99-.627 2.153-.418 4.115-1.018 5.892-1.799 1.775-.782 3.375-1.745 4.795-2.89s2.653-2.446 3.697-4.173c-.018 3.036.22 5.347.804 7.677h12.448a65.59 65.59 0 0 1-.875-4.57l.005-.003ZM587.844 68.32c0 2.115-.209 4.025-.627 5.725-.418 1.7-1.013 3.216-1.782 4.544a14.52 14.52 0 0 1-2.803 3.485 15.466 15.466 0 0 1-3.629 2.46 17.73 17.73 0 0 1-4.289 1.43 24.217 24.217 0 0 1-4.816.466c-1.979 0-3.761-.217-5.345-.653-1.584-.437-2.936-1.08-4.057-1.93a8.713 8.713 0 0 1-2.608-3.174c-.616-1.264-.923-2.727-.923-4.388v-.373c0-2.282.659-4.202 1.979-5.757 1.319-1.555 3.287-2.811 5.905-3.766 2.616-.955 5.874-1.68 9.767-2.18 3.808-.486 8.222-.853 13.228-1.102v5.213Z"/></svg>